Coordinates
version=1
nRows=7
nColumns=63
inDegrees=yes

Units are S.I. units (second, meters, Newtons, ...)
If the header above contains a line with 'inDegrees', this indicates whether rotational values are in degrees (yes) or radians (no).

endheader
time	pelvis_tilt	pelvis_list	pelvis_rotation	pelvis_tx	pelvis_ty	pelvis_tz	hip_flexion_r	hip_adduction_r	hip_rotation_r	knee_angle_r	knee_angle_r_beta	ankle_angle_r	subtalar_angle_r	mtp_angle_r	hip_flexion_l	hip_adduction_l	hip_rotation_l	knee_angle_l	knee_angle_l_beta	ankle_angle_l	subtalar_angle_l	mtp_angle_l	L5_S1_Flex_Ext	L5_S1_Lat_Bending	L5_S1_axial_rotation	L4_L5_Flex_Ext	L4_L5_Lat_Bending	L4_L5_axial_rotation	L3_L4_Flex_Ext	L3_L4_Lat_Bending	L3_L4_axial_rotation	L2_L3_Flex_Ext	L2_L3_Lat_Bending	L2_L3_axial_rotation	L1_L2_Flex_Ext	L1_L2_Lat_Bending	L1_L2_axial_rotation	L1_T12_Flex_Ext	L1_T12_Lat_Bending	L1_T12_axial_rotation	Abs_r3	Abs_r2	Abs_r1	Abs_t1	Abs_t2	neck_flexion	neck_bending	neck_rotation	arm_flex_r	arm_add_r	arm_rot_r	elbow_flex_r	pro_sup_r	wrist_flex_r	wrist_dev_r	arm_flex_l	arm_add_l	arm_rot_l	elbow_flex_l	pro_sup_l	wrist_flex_l	wrist_dev_l
      9.60000000	      4.57082788	     -0.93250962	   -178.47402608	      2.47090108	      0.88843874	      0.79039910	     14.71978809	     -3.44985199	     -8.98658080	     25.97417548	      0.45333488	     22.34200292	     -5.11005063	      0.00000000	      7.42153972	     -3.17569834	    -15.21333593	     15.63688263	      0.27291509	     21.68647141	     10.68051295	      0.00000000	      0.00264407	     -0.19502493	     -0.00529244	      0.00491030	     -0.25938316	     -0.00562322	      0.00434394	     -0.47418363	     -0.00562322	      0.00302191	     -0.47418363	     -0.00463088	      0.00245528	     -0.39769485	     -0.00430011	      0.00151082	     -0.30209362	     -0.00396933	      0.01888633	     -2.20616106	     -0.02943495	      0.00000000	      0.00000000	      0.00000000	      0.00000000	     -0.00000000	    -10.37758970	     -5.14050980	     10.71948031	     23.48453903	     70.45239290	      0.00000000	      5.00000014	    -12.12868490	     -6.99920003	     32.08078816	     24.28760097	     38.82275819	      0.00000000	      5.00000014
      9.63333333	      4.55269064	     -0.72092489	   -178.46404940	      2.47052102	      0.88848931	      0.79050340	     14.71561382	     -3.22520489	     -9.02224127	     25.96516519	      0.45317762	     22.08171316	     -5.24304993	      0.00000000	      7.30620898	     -3.36285764	    -15.66667627	     15.44216664	      0.26951665	     21.69222730	     11.06880244	      0.00000000	      0.00289868	     -0.16142105	     -0.01777329	      0.00538315	     -0.21468999	     -0.01888412	      0.00476225	     -0.39247913	     -0.01888412	      0.00331291	     -0.39247913	     -0.01555163	      0.00269172	     -0.32916980	     -0.01444080	      0.00165631	     -0.25004120	     -0.01332997	      0.02070502	     -1.82602715	     -0.09884971	      0.00000000	      0.00000000	      0.00000000	      0.00000000	     -0.00000000	     -9.76075297	     -6.44615646	     17.64481806	     23.40777707	     71.64980558	      0.00000000	      5.00000014	    -12.26631286	     -7.17248865	     35.30155218	     23.79001597	     40.23821127	      0.00000000	      5.00000014
      9.66666667	      4.55257718	     -0.55007488	   -178.26305425	      2.47026332	      0.88853581	      0.79088128	     14.67793517	     -3.09675286	     -9.27113367	     25.90872225	      0.45219251	     21.86007535	     -5.32454746	      0.00000000	      7.34497130	     -3.46355674	    -15.80952452	     15.41113996	      0.26897513	     21.62167573	     11.13143253	      0.00000000	      0.00389954	     -0.13171079	     -0.06162020	      0.00724184	     -0.17517535	     -0.06547146	      0.00640655	     -0.32024162	     -0.06547146	      0.00445678	     -0.32024162	     -0.05391768	      0.00362111	     -0.26858465	     -0.05006641	      0.00222820	     -0.20402002	     -0.04621515	      0.02785402	     -1.48993882	     -0.34271307	      0.00000000	      0.00000000	      0.00000000	      0.00000000	     -0.00000000	     -9.73869634	     -6.67904043	     18.60875000	     23.54197740	     70.78447665	      0.00000000	      5.00000014	    -12.24241837	     -7.34835269	     39.02215234	     23.17107769	     42.10464400	      0.00000000	      5.00000014
      9.70000000	      4.54950100	     -0.54261642	   -178.25382123	      2.47002707	      0.88857734	      0.79122849	     14.70438741	     -3.17834718	     -9.59670764	     26.01111371	      0.45397958	     21.87047267	     -5.11423677	      0.00000000	      7.34780431	     -3.24278770	    -15.43198006	     15.24901125	      0.26614545	     21.44317957	      9.74018419	      0.00000000	      0.00152486	     -0.12336356	     -0.08416874	      0.00283182	     -0.16407354	     -0.08942928	      0.00250519	     -0.29994617	     -0.08942928	      0.00174276	     -0.29994617	     -0.07364764	      0.00141598	     -0.25156298	     -0.06838710	      0.00087130	     -0.19109016	     -0.06312655	      0.01089191	     -1.39551330	     -0.46812126	      0.00000000	      0.00000000	      0.00000000	      0.00000000	     -0.00000000	     -9.79913856	     -6.65243486	     18.49417294	     23.64743790	     69.72617800	      0.00000000	      5.00000014	    -12.69330910	     -7.18242422	     39.18525241	     22.97796908	     42.28026997	      0.00000000	      5.00000014
      9.73333333	      4.59550606	     -0.54117474	   -178.49170497	      2.47009333	      0.88865108	      0.79095591	     14.74535095	     -2.94591112	     -8.60591428	     25.85783569	      0.45130437	     21.61764046	     -5.97931290	      0.00000000	      7.54035329	     -3.47349551	    -18.12578119	     15.60868519	      0.27242295	     21.63433203	     11.63265433	      0.00000000	      0.00295135	     -0.12333029	     -0.05929765	      0.00548095	     -0.16402928	     -0.06300376	      0.00484878	     -0.29986526	     -0.06300376	      0.00337310	     -0.29986526	     -0.05188545	      0.00274062	     -0.25149513	     -0.04817934	      0.00168640	     -0.19103862	     -0.04447324	      0.02108121	     -1.39513690	     -0.32979575	      0.00000000	      0.00000000	      0.00000000	      0.00000000	     -0.00000000	     -9.84740840	     -6.42304741	     17.14945536	     23.59299524	     69.29368984	      0.00000000	      5.00000014	    -12.30962535	     -7.49907790	     42.83659824	     22.55805934	     44.32178585	      0.00000000	      5.00000014
      9.76666667	      4.63758538	     -0.59992340	   -178.43081940	      2.47007082	      0.88868588	      0.79124681	     14.75873664	     -3.05830731	     -8.86098180	     25.86369369	      0.45140661	     21.73720755	     -5.87258648	      0.00000000	      7.74919883	     -3.25125934	    -18.18785289	     15.71628358	      0.27430089	     21.66649887	     10.45906088	      0.00000000	      0.00238235	     -0.13613642	     -0.08236943	      0.00442427	     -0.18106144	     -0.08751752	      0.00391397	     -0.33100209	     -0.08751752	      0.00272279	     -0.33100209	     -0.07207325	      0.00221225	     -0.27760939	     -0.06692516	      0.00136128	     -0.21087531	     -0.06177707	      0.01701692	     -1.54000240	     -0.45811404	      0.00000000	      0.00000000	      0.00000000	      0.00000000	     -0.00000000	     -9.83772260	     -6.51159619	     17.21018947	     23.67048763	     68.78935850	      0.00000000	      5.00000014	    -12.20821328	     -7.53777549	     42.70743899	     22.63247185	     44.33496128	      0.00000000	      5.00000014
      9.80000000	      4.71309399	     -0.75176187	   -178.37777766	      2.47027908	      0.88865399	      0.79150797	     14.79164998	     -3.24984859	     -9.06304747	     25.82244765	      0.45068673	     21.87219740	     -5.77595416	      0.00000000	      8.04562575	     -2.97380806	    -18.51670052	     15.92109614	      0.27787555	     21.56994816	      9.33507203	      0.00000000	      0.00058921	     -0.16562093	     -0.11570153	      0.00109422	     -0.22027584	     -0.12293287	      0.00096801	     -0.40269073	     -0.12293287	      0.00067341	     -0.40269073	     -0.10123884	      0.00054714	     -0.33773420	     -0.09400749	      0.00033667	     -0.25654682	     -0.08677615	      0.00420867	     -1.87353708	     -0.64349719	      0.00000000	      0.00000000	      0.00000000	      0.00000000	     -0.00000000	     -9.63641899	     -6.62502067	     17.55461049	     23.57616217	     68.30945490	      0.00000000	      5.00000014	    -11.86793272	     -7.63194571	     42.23209579	     22.63851727	     44.27102934	      0.00000000	      5.00000014
